<?xml version="1.0" encoding="UTF-8" standalone="no"?>
<!DOCTYPE svg PUBLIC "-//W3C//DTD SVG 1.1//EN" "http://www.w3.org/Graphics/SVG/1.1/DTD/svg11.dtd">
<svg width="100%" height="100%" viewBox="0 0 1000 1000" version="1.1" xmlns="http://www.w3.org/2000/svg" xmlns:xlink="http://www.w3.org/1999/xlink" xml:space="preserve" xmlns:serif="http://www.serif.com/" style="fill-rule:evenodd;clip-rule:evenodd;stroke-linejoin:round;stroke-miterlimit:2;">
    <g transform="matrix(1,0,0,1,0,-4)">
        <g id="Icon" transform="matrix(0.892857,0,0,2.890173,-950,4)">
            <rect x="1064" y="0" width="1120" height="346" style="fill:none;"/>
            <g transform="matrix(5.14478,0,0,1.752305,-455.322262,-631.000341)">
                <path d="M295.313,412.436C295.313,412.436 316.736,403.594 362.313,408.436C362.313,408.436 374.569,400.5 389.313,403.436L368.313,409.436C368.313,409.436 380.944,415.134 384.313,426.436C396.353,427.668 421.909,423.878 411,447C419.266,447.67 422,448 422,448C422,448 411.831,465.073 310,497C405.522,474.402 435.913,490.063 447.61,492.921C441.984,499.439 443.61,499.921 443.61,499.921C443.61,499.921 464.935,500.177 469.61,501.921C469.61,501.921 475.655,534.487 448.61,543.921C475.79,540.074 513.706,522.305 513,485C513,485 475.673,485.484 487,465C499.027,443.249 505.169,448.38 510,444C510,444 495.012,433.969 462,435C468.173,439.728 470,440 470,440C470,440 461.973,439.906 458,441C454.27,435.33 448.738,437.732 443,390C441.539,385.631 437.296,384.504 434,383C430.704,381.496 400.806,369.943 373,375C345.194,380.057 295.313,412.436 295.313,412.436Z"/>
            </g>
        </g>
    </g>
</svg>
